<!DOCTYPE svg PUBLIC "-//W3C//DTD SVG 20010904//EN" "http://www.w3.org/TR/2001/REC-SVG-20010904/DTD/svg10.dtd">
<svg version="1.0" xmlns="http://www.w3.org/2000/svg" width="948px" height="887px" viewBox="0 0 9480 8870" preserveAspectRatio="xMidYMid meet">
<g id="layer101" fill="#1e99ed" stroke="none">
 <path d="M0 4435 l0 -4435 4740 0 4740 0 0 4435 0 4435 -4740 0 -4740 0 0 -4435z"/>
 </g>
<g id="layer102" fill="#6ac3fc" stroke="none">
 <path d="M0 4435 l0 -4435 226 0 c210 0 225 1 220 18 -175 587 -166 1213 24 1783 58 174 177 443 230 519 9 14 30 50 46 80 16 30 35 61 42 69 7 8 21 26 30 40 22 35 169 228 207 271 140 161 414 408 537 485 26 17 47 33 48 38 1 19 -329 -20 -531 -64 -227 -49 -586 -180 -737 -269 -18 -11 -36 -20 -40 -20 -9 0 -5 164 9 320 18 212 92 540 165 728 144 374 353 710 615 986 176 186 409 375 609 493 52 31 107 64 122 75 15 10 31 18 36 18 5 0 40 16 77 36 154 82 484 197 665 231 l45 9 -95 22 c-273 63 -406 77 -710 76 -173 -1 -257 -6 -365 -23 -77 -11 -143 -21 -147 -21 -4 0 6 37 22 83 238 691 771 1296 1436 1630 355 179 695 274 1112 310 l143 12 -67 54 c-139 110 -407 288 -611 405 -304 174 -609 316 -925 430 l-127 46 -1155 0 -1156 0 0 -4435z"/>
 <path d="M9241 8813 c41 -31 106 -82 144 -113 39 -31 76 -60 83 -64 9 -6 12 20 12 113 l0 121 -156 0 -156 0 73 -57z"/>
 <path d="M6640 2453 c-270 -11 -738 -73 -1130 -148 -293 -57 -731 -176 -1075 -295 -599 -205 -1288 -542 -1769 -864 -83 -56 -155 -103 -161 -105 -5 -2 -89 -61 -185 -129 -289 -207 -549 -420 -808 -662 -74 -69 -164 -153 -200 -187 l-67 -62 3019 -1 c2969 0 3018 0 3005 19 -128 178 -223 333 -294 481 -20 41 -42 86 -50 100 -53 99 -145 381 -185 570 -59 281 -85 642 -61 857 14 125 38 288 51 353 14 71 13 80 -13 77 -12 -1 -47 -3 -77 -4z"/>
 </g>

</svg>